<svg xmlns="http://www.w3.org/2000/svg" viewBox="0 0 841.9 595.3"><linearGradient id="a" gradientUnits="userSpaceOnUse" x1="381.95" y1="241.594" x2="387.228" y2="241.594" gradientTransform="scale(1 -1) rotate(-20.2 -1074.175 280.362)"><stop offset="0" stop-color="#faa31a"/><stop offset=".05" stop-color="#faa82b"/><stop offset=".148" stop-color="#fcb755"/><stop offset=".285" stop-color="#fdcf8f"/><stop offset=".454" stop-color="#fdf0df"/><stop offset=".502" stop-color="#fdfdfe"/><stop offset=".63" stop-color="#fde4c3"/><stop offset=".923" stop-color="#fbb042"/><stop offset="1" stop-color="#faa31a"/></linearGradient><path fill="url(#a)" d="M284 260.5c-.9-.1-1.8-.4-2.6-.7-.8-.3-1.6-.6-2.4-1.1 1.7.6 3.4 1.2 5 1.8z"/><linearGradient id="b" gradientUnits="userSpaceOnUse" x1="381.95" y1="241.594" x2="387.228" y2="241.594" gradientTransform="scale(1 -1) rotate(-20.2 -1074.175 280.362)"><stop offset="0" stop-color="#faa31a"/><stop offset=".05" stop-color="#faa82b"/><stop offset=".148" stop-color="#fcb755"/><stop offset=".285" stop-color="#fdcf8f"/><stop offset=".454" stop-color="#fdf0df"/><stop offset=".502" stop-color="#fdfdfe"/><stop offset=".63" stop-color="#fde4c3"/><stop offset=".923" stop-color="#fbb042"/><stop offset="1" stop-color="#faa31a"/></linearGradient><path fill="url(#b)" d="M284 260.5c-.9-.1-1.8-.4-2.6-.7-.8-.3-1.6-.6-2.4-1.1 1.7.6 3.4 1.2 5 1.8z"/><linearGradient id="c" gradientUnits="userSpaceOnUse" x1="321.882" y1="262.633" x2="372.774" y2="260.609" gradientTransform="scale(1 -1) rotate(-20.2 -1074.175 280.362)"><stop offset="0" stop-color="#faa31a"/><stop offset=".05" stop-color="#faa82b"/><stop offset=".148" stop-color="#fcb755"/><stop offset=".285" stop-color="#fdcf8f"/><stop offset=".454" stop-color="#fdf0df"/><stop offset=".502" stop-color="#fdfdfe"/><stop offset=".63" stop-color="#fde4c3"/><stop offset=".923" stop-color="#fbb042"/><stop offset="1" stop-color="#faa31a"/></linearGradient><path fill="url(#c)" d="M241.4 225.3c-8.9-2.3-18-2.6-26.7-1.1 9.8-4.7 20.8-7.1 32.3-6.6 5.6.2 10.9 1.2 16 2.6 1.5.5 3.1 1 4.5 1.5 4.6 2.7 6.6 8.4 4.7 13.7-.8 2-2.1 3.8-3.7 5.1-7.2-7.1-16.4-12.4-27.1-15.2z"/><linearGradient id="d" gradientUnits="userSpaceOnUse" x1="317.436" y1="199.14" x2="338.795" y2="176.049" gradientTransform="scale(1 -1) rotate(-20.2 -1074.175 280.362)"><stop offset="0" stop-color="#faa31a"/><stop offset=".101" stop-color="#e7972c"/><stop offset=".299" stop-color="#c17e47"/><stop offset=".502" stop-color="#98665b"/><stop offset=".782" stop-color="#c98442"/><stop offset="1" stop-color="#faa31a"/></linearGradient><path fill="url(#d)" d="M255.1 345.8c-.6.2-1.3.3-1.9.4-5.3 1.1-10.8 1.5-16.4 1.3-29.9-1.3-53.6-22.1-59.5-49.4 1.6-1.6 2.7-3.7 3.1-6 0-1.2 0-2.4.1-3.7.1-1.5.3-2.9.5-4.4 3.4-20.5 20.3-35.9 39.9-37.6-13.7 8.1-22.7 23.2-21.9 39.6 1 23.3 21.2 40.7 44.9 38.8 1.5-.1 3-.3 4.4-.6 1.2-.2 2.4-.5 3.6-.8 2.8-.2 5.4.7 7.4 2.2.4.3.7.6 1.1.9 1.6 1.6 2.6 3.6 3 6 .9 5.9-2.7 11.5-8.3 13.3z"/><linearGradient id="e" gradientUnits="userSpaceOnUse" x1="343.483" y1="236.978" x2="312.071" y2="215.642" gradientTransform="scale(1 -1) rotate(-20.2 -1074.175 280.362)"><stop offset="0" stop-color="#faa31a"/><stop offset=".05" stop-color="#faa82b"/><stop offset=".148" stop-color="#fcb755"/><stop offset=".285" stop-color="#fdcf8f"/><stop offset=".454" stop-color="#fdf0df"/><stop offset=".502" stop-color="#fdfdfe"/><stop offset=".63" stop-color="#fde4c3"/><stop offset=".923" stop-color="#fbb042"/><stop offset="1" stop-color="#faa31a"/></linearGradient><path fill="url(#e)" d="M268.6 240.5c-2.6 2.1-6 3.1-9.3 2.6-1.2-.5-2.4-.9-3.7-1.2-4.8-1.4-10.1-2-15.5-1.5-7 .5-13.5 2.8-19.2 6.2-19.5 1.7-36.5 17-39.9 37.6-.3 1.5-.4 3-.5 4.4-.1 1.2-.1 2.5-.1 3.7-.4 2.3-1.5 4.4-3.1 6-1.3-5.9-1.7-12-1.2-18.4 1.9-24.6 17.4-45.4 38.7-55.5 8.7-1.5 17.8-1.2 26.7 1.1 10.6 2.6 19.8 7.9 27.1 15z"/><linearGradient id="f" gradientUnits="userSpaceOnUse" x1="282.696" y1="262.685" x2="347.969" y2="197.412" gradientTransform="scale(1 -1) rotate(-20.2 -1074.175 280.362)"><stop offset="0" stop-color="#faa31a"/><stop offset=".05" stop-color="#faa82b"/><stop offset=".148" stop-color="#fcb755"/><stop offset=".285" stop-color="#fdcf8f"/><stop offset=".454" stop-color="#fdf0df"/><stop offset=".502" stop-color="#fdfdfe"/><stop offset=".63" stop-color="#fde4c3"/><stop offset=".923" stop-color="#fbb042"/><stop offset="1" stop-color="#faa31a"/></linearGradient><path fill="url(#f)" d="M268.6 240.5c-2.6 2.1-6 3.1-9.3 2.6-1.2-.5-2.4-.9-3.7-1.2-4.8-1.4-10.1-2-15.5-1.5-7 .5-13.5 2.8-19.2 6.2-19.5 1.7-36.5 17-39.9 37.6-.3 1.5-.4 3-.5 4.4-.1 1.2-.1 2.5-.1 3.7-.4 2.3-1.5 4.4-3.1 6-.1-.5 2.1-5 2.6-7.1 0-1.2 0-2.4.1-3.7.1-1.5.3-2.9.5-4.4 3.4-20.5 20.3-35.9 39.9-37.6 5.7-3.4 12.3-5.5 19.2-6.2 5.4-.4 10.7.1 15.5 1.5 1.3.4 2.5.8 3.7 1.2 3.2.5 9.5-1.8 9.8-1.5z"/><linearGradient id="g" gradientUnits="userSpaceOnUse" x1="286.452" y1="159.052" x2="292.995" y2="227.448" gradientTransform="scale(1 -1) rotate(-20.2 -1074.175 280.362)"><stop offset="0" stop-color="#faa31a"/><stop offset=".05" stop-color="#faa82b"/><stop offset=".148" stop-color="#fcb755"/><stop offset=".285" stop-color="#fdcf8f"/><stop offset=".454" stop-color="#fdf0df"/><stop offset=".502" stop-color="#fdfdfe"/><stop offset=".63" stop-color="#fde4c3"/><stop offset=".923" stop-color="#fbb042"/><stop offset="1" stop-color="#faa31a"/></linearGradient><path fill="url(#g)" d="M214.8 224.2c-21.3 10.2-36.8 30.9-38.7 55.5-.5 6.4-.1 12.5 1.2 18.4-2.2 2.4-5.3 3.8-8.7 3.7-5.9-.1-10.5-4.6-10.9-10.4 0-.6.1-1.3.1-1.9.3-5.4 1.1-10.8 2.7-16.3 7.6-26.2 29.5-44.7 54.3-49z"/><linearGradient id="h" gradientUnits="userSpaceOnUse" x1="353.777" y1="237.91" x2="384.931" y2="205.025" gradientTransform="scale(1 -1) rotate(-20.2 -1074.175 280.362)"><stop offset="0" stop-color="#faa31a"/><stop offset=".101" stop-color="#e7972c"/><stop offset=".299" stop-color="#c17e47"/><stop offset=".502" stop-color="#98665b"/><stop offset=".782" stop-color="#c98442"/><stop offset="1" stop-color="#faa31a"/></linearGradient><path fill="url(#h)" d="M278.4 320.8c-.8 1.5-1.7 2.9-2.6 4.2-3.8 4-9.9 5.1-14.4 2.2-.4-.2-.6-.4-.9-.6-.4-.3-.7-.6-1.1-.9-3.2-3.2-4.1-8.1-2.3-12.5.7-1.1 1.5-2.2 2.1-3.4 2.5-4.5 4.4-9.6 5.3-15 3.9-23.6-11.6-45.2-34.7-48.2-3-.4-6-.4-8.9-.2 5.7-3.4 12.3-5.5 19.2-6.2 5.4-.4 10.7.1 15.5 1.5 1.3.4 2.5.8 3.7 1.2 3.4.6 6.8-.4 9.3-2.6 16.4 15.9 23.5 40.6 16.3 65.1-1.6 5.7-3.8 10.7-6.5 15.4z"/><linearGradient id="i" gradientUnits="userSpaceOnUse" x1="860.296" y1="373.877" x2="342.22" y2="301.471" gradientTransform="matrix(1 0 0 -1 .01 595.26)"><stop offset="0" stop-color="#faa31a"/><stop offset=".101" stop-color="#e7972c"/><stop offset=".299" stop-color="#c17e47"/><stop offset=".502" stop-color="#98665b"/><stop offset=".782" stop-color="#c98442"/><stop offset="1" stop-color="#faa31a"/></linearGradient><path fill="url(#i)" d="M301.4 297c0-5.5.5-10.3 1.8-14.4 1.1-4.1 2.9-7 5-9.6 2.3-2.6 5-4.4 8.5-5.5 3.4-1.1 7.4-1.8 11.9-1.8 3.1 0 6.1.4 9.2 1.1 3.1.7 5.9 2.2 9 4.1.4.4.7.7.9 1.1.2.4.2.7.2 1.1 0 .4-.2.7-.4 1.1-.2.4-.5.4-.9.4-.2 0-.4 0-.7-.4-2.7-1.8-5.6-2.9-8.6-4.1-3.1-1.1-5.9-1.5-8.8-1.5-4.3 0-7.9.4-11 1.5-3.1 1.1-5.6 2.6-7.6 4.8-2 2.2-3.4 5.2-4.3 8.5-.9 3.3-1.3 7.7-1.3 12.5s.4 8.8 1.3 12.5c.9 3.3 2.3 6.3 4.3 8.5s4.5 4.1 7.6 4.8c3.1 1.1 6.7 1.5 11 1.5 2.9 0 5.8-.4 8.8-1.5 3.1-1.1 5.8-2.2 8.6-4.1.2 0 .4-.4.7-.4.4 0 .7 0 .9.4s.4.7.4 1.1c0 .4 0 .7-.2 1.1-.2.4-.5.7-.9.7-3.1 1.8-6.1 3.3-9 4.1-2.9.7-5.9 1.1-9.2 1.1-4.5 0-8.5-.7-11.9-1.8-3.4-1.1-6.3-2.9-8.5-5.5-2.3-2.6-4-5.9-5-9.6-1.3-1.1-1.8-5.9-1.8-11.8z"/><linearGradient id="j" gradientUnits="userSpaceOnUse" x1="846.502" y1="372.344" x2="322.678" y2="299.135"><stop offset="0" stop-color="#faa31a"/><stop offset=".101" stop-color="#e7972c"/><stop offset=".299" stop-color="#c17e47"/><stop offset=".502" stop-color="#98665b"/><stop offset=".782" stop-color="#c98442"/><stop offset="1" stop-color="#faa31a"/></linearGradient><path fill="url(#j)" d="M372.1 327.6c-3.4 0-6.1-.4-8.5-1.5-2.3-1.1-4.1-2.6-5.6-4.4-1.4-1.8-2.5-4.1-3.1-6.6-.5-2.6-.9-5.5-.9-8.8 0-3.7.4-7 1.1-10 .7-2.6 1.8-4.8 3.2-6.6 1.4-1.8 3.4-2.9 5.6-4.1 2.2-1.1 4.9-1.1 8.1-1.1 3.1 0 5.8.4 8.1 1.1 2.3.7 4.1 2.2 5.6 4.1 1.4 1.8 2.5 4.1 3.2 6.6.7 2.6 1.1 5.9 1.1 10 0 3.3-.4 6.3-.9 8.8-.5 2.6-1.6 4.8-3.1 6.6s-3.2 3.3-5.6 4.4c-2.2 1.1-4.9 1.5-8.3 1.5zm0-2.9c2.2 0 4.1-.4 5.8-.7 1.6-.4 2.9-1.1 4.1-1.8s2-1.8 2.7-2.9c.7-1.1 1.3-2.6 1.6-3.7.4-1.5.7-2.6.7-4.1.2-1.5.2-2.9.2-4.4 0-3.3-.4-6.3-.9-8.5s-1.4-4.4-2.7-5.9-2.9-2.6-4.7-3.3c-2-.7-4.1-1.1-6.8-1.1s-4.9.4-6.8 1.1c-2 .7-3.4 1.8-4.7 3.3s-2.2 3.3-2.7 5.9c-.5 2.2-.9 5.2-.9 8.5 0 1.5 0 2.9.2 4.4.2 1.5.4 2.9.7 4.1.4 1.5.9 2.6 1.6 3.7.7 1.1 1.6 2.2 2.7 2.9 1.1.7 2.5 1.5 4.1 1.8 1.6.3 3.6.7 5.8.7z"/><linearGradient id="k" gradientUnits="userSpaceOnUse" x1="843.338" y1="356.479" x2="326.511" y2="284.248"><stop offset="0" stop-color="#faa31a"/><stop offset=".101" stop-color="#e7972c"/><stop offset=".299" stop-color="#c17e47"/><stop offset=".502" stop-color="#98665b"/><stop offset=".782" stop-color="#c98442"/><stop offset="1" stop-color="#faa31a"/></linearGradient><path fill="url(#k)" d="M415 327.6c-2.2 0-4.3-.4-6.1-1.1-2-.7-3.6-1.8-5-3.3-1.4-1.5-2.7-3.7-3.4-6.6-.9-2.6-1.3-5.9-1.3-10s.4-7.4 1.1-10.3c.7-2.9 1.8-5.2 3.1-6.6 1.4-1.8 3.1-2.9 5-3.7 2-.7 4.3-1.1 6.8-1.1s4.7.4 6.7.7c1.8.4 3.4 1.1 4.7 1.8s2.3 1.5 3.1 2.6 1.4 1.8 2 2.6v-21-1.5c0-.4 0-.7.2-1.1.2-.4.2-.7.4-.7s.5-.4.9-.4.7 0 .9.4c.2.4.4.4.4.7s.2.7.2 1.1V325c0 1.1-.2 1.8-.5 2.2-.4.4-.5.7-.9.7s-.7 0-1.1-.4c-.4-.4-.4-1.1-.4-2.2V318c-.2 1.5-.7 2.9-1.4 4.1-.7 1.1-1.4 2.2-2.3 2.9-.9.7-2 1.5-3.1 1.8-1.1.4-2.2 1.1-3.4 1.1-1.1.4-2.2.4-3.2.4-1.6-.7-2.7-.7-3.4-.7zm0-2.9c1.4 0 3.1 0 4.7-.4 1.8-.4 3.4-.7 4.9-1.5 1.6-.7 2.9-1.8 4.1-3.3 1.3-1.5 2-3.3 2.5-5.5v-19.2c-.5-.7-1.3-1.5-2.2-2.2-.9-.7-2-1.5-3.2-2.2-1.3-.7-2.9-1.1-4.7-1.5-1.8-.4-4-.7-6.3-.7s-4.3.4-5.9 1.1c-1.6.7-3.1 1.8-4.1 3.3-1.1 1.5-1.8 3.3-2.3 5.9s-.7 5.2-.7 8.5.4 6.3 1.1 8.5c.7 2.2 1.6 4.1 2.9 5.5s2.5 2.2 4.1 2.9c1.5.4 3.3.8 5.1.8z"/><linearGradient id="l" gradientUnits="userSpaceOnUse" x1="784.666" y1="346.316" x2="346.226" y2="285.04"><stop offset="0" stop-color="#faa31a"/><stop offset=".101" stop-color="#e7972c"/><stop offset=".299" stop-color="#c17e47"/><stop offset=".502" stop-color="#98665b"/><stop offset=".782" stop-color="#c98442"/><stop offset="1" stop-color="#faa31a"/></linearGradient><path fill="url(#l)" d="M445.8 273.8c0-.7.2-1.5.5-2.2.4-.7.9-.7 1.4-.7s1.1.4 1.4.7c.4.7.5 1.1.5 2.2s-.2 1.5-.5 1.8c-.4.4-.9.7-1.4.7s-1.1-.4-1.4-.7c-.3-.4-.5-1.1-.5-1.8zm3.2 50.1v1.5c0 .4 0 .7-.2 1.1 0 .4-.2.4-.4.7s-.5.4-.9.4c-.7 0-1.1-.4-1.3-.7s-.2-1.5-.2-2.6v-34.7c0-.7 0-1.8.2-2.2.2-.7.5-1.1 1.3-1.1.5 0 .9.4 1.1 1.1.2.7.2 1.5.2 2.2v34.3h.2z"/><linearGradient id="m" gradientUnits="userSpaceOnUse" x1="866.727" y1="343.652" x2="352.175" y2="271.739" gradientTransform="matrix(1 0 0 -1 .01 595.26)"><stop offset="0" stop-color="#faa31a"/><stop offset=".101" stop-color="#e7972c"/><stop offset=".299" stop-color="#c17e47"/><stop offset=".502" stop-color="#98665b"/><stop offset=".782" stop-color="#c98442"/><stop offset="1" stop-color="#faa31a"/></linearGradient><path fill="url(#m)" d="M493.2 323.2v1.5c0 .4-.2.7-.2 1.1-.2.4-.2.7-.5.7-.2.4-.4.4-.7.4-.4 0-.7 0-.9-.4s-.4-.4-.4-.7-.2-.7-.2-1.1v-20.3c0-2.9-.2-5.2-.4-7.4s-.9-3.7-1.6-5.2c-.7-1.5-2-2.6-3.4-2.9-1.4-.7-3.2-1.1-5.6-1.1-1.4 0-2.9 0-4.5.4s-3.1 1.1-4.5 1.8-2.7 1.8-3.8 3.3-1.8 3.3-2.3 5.2v25.8c0 .4 0 .7-.2 1.1-.2.4-.2.7-.4.7-.2.4-.4.4-.7.4-.4 0-.5 0-.9-.4-.2-.4-.4-.4-.5-.7-.2-.4-.2-.7-.2-1.1v-36.5c0-.7 0-1.1.2-1.8.2-.4.5-.7 1.3-.7.5 0 .9.4 1.1.7.2.4.2 1.1.2 1.8v6.6c.7-2.2 1.6-4.1 2.9-5.5s2.5-2.6 4-2.9c1.4-.7 2.9-1.1 4.3-1.5s2.9-.4 4.1-.4c2.5 0 4.9.4 6.7 1.1 1.8.7 3.2 1.8 4.3 3.3s1.8 3.7 2.3 6.3.7 5.5.7 9.6v18.8h-.2z"/><linearGradient id="n" gradientUnits="userSpaceOnUse" x1="843.829" y1="360.03" x2="329.966" y2="288.213"><stop offset="0" stop-color="#faa31a"/><stop offset=".101" stop-color="#e7972c"/><stop offset=".299" stop-color="#c17e47"/><stop offset=".502" stop-color="#98665b"/><stop offset=".782" stop-color="#c98442"/><stop offset="1" stop-color="#faa31a"/></linearGradient><path fill="url(#n)" d="M520.9 342c2 0 3.8-.4 5.4-.7s3.1-1.5 4.3-2.6c1.3-1.1 2.2-2.6 2.9-4.1.7-1.8 1.1-3.7 1.1-5.9v-6.3c-1.1 1.1-2.2 1.8-3.4 2.6-1.3.7-2.3 1.5-3.6 1.8s-2.5.7-3.8 1.1c-1.3.4-2.5.4-3.6.4-2.7 0-5.2-.4-7.4-1.1-2.2-.7-4-1.8-5.4-3.3-1.4-1.5-2.7-3.7-3.4-6.6-.7-2.6-1.3-6.3-1.3-10.3s.4-7.7 1.3-10.3c.9-2.9 2.2-5.2 3.8-6.6 1.6-1.8 3.6-2.9 5.9-3.7s4.9-1.1 7.7-1.1c2.5 0 4.5.4 6.1 1.1 1.6.7 2.9 1.5 4 2.6.9 1.1 1.6 2.2 2.2 3.3.4 1.1.7 2.2.9 3.3v-2.2-2.6c0-1.1 0-2.2.2-3.3.2-.7.5-1.5 1.1-1.5.4 0 .7 0 .9.4s.4.4.5.7c.2.4.2.7.4 1.1v40.2c0 5.5-1.4 10-4.3 12.9-2.9 2.9-7 4.4-12.2 4.4-1.8 0-3.2 0-4.7-.4s-2.5-.7-3.6-1.1c-1.1-.4-2-.7-2.9-1.5-.9-.7-1.6-1.1-2.2-1.5-.2 0-.5-.4-.9-.7-.4-.4-.5-1.1-.5-1.5 0-.7.2-1.1.5-1.5.4-.4.5-.4.7-.4.2 0 .5 0 .7.4.4.4.5.4 1.1.7.4.4.7.7 1.3 1.1.5.4.9.7 1.4.7 1.1.4 2.2 1.1 3.8 1.5 1.3.1 2.9.5 5 .5zm.9-53.5c-2.9 0-5.4.4-7.4 1.1-2 .7-3.8 1.5-5 2.9-1.3 1.5-2.3 3.3-2.9 5.5-.5 2.2-.9 5.2-.9 8.5s.2 6.3.7 8.5c.5 2.2 1.3 4.1 2.5 5.5 1.3 1.5 2.7 2.6 4.5 2.9 1.8.7 4.1 1.1 6.8 1.1 1.3 0 2.5 0 3.8-.4 1.3-.4 2.5-.4 3.8-1.1 1.3-.4 2.3-1.1 3.6-1.8 1.1-.7 2.2-1.5 3.2-2.6v-19.9c-.2-1.1-.5-2.2-.9-3.3-.4-1.1-1.1-2.2-2.2-3.3-.9-1.1-2.2-1.8-3.8-2.6-1.3-.6-3.3-1-5.8-1z"/><linearGradient id="o" gradientUnits="userSpaceOnUse" x1="872.301" y1="338.789" x2="354.224" y2="266.383" gradientTransform="matrix(1 0 0 -1 .01 595.26)"><stop offset="0" stop-color="#faa31a"/><stop offset=".101" stop-color="#e7972c"/><stop offset=".299" stop-color="#c17e47"/><stop offset=".502" stop-color="#98665b"/><stop offset=".782" stop-color="#c98442"/><stop offset="1" stop-color="#faa31a"/></linearGradient><path fill="url(#o)" d="M564.4 297c0-5.5.5-10.3 1.8-14.4 1.1-4.1 2.9-7 5-9.6 2.3-2.6 5-4.4 8.5-5.5s7.4-1.8 11.9-1.8c3.1 0 6.1.4 9.2 1.1 3.1.7 5.9 2.2 9 4.1.4.4.7.7.9 1.1.2.4.2.7.2 1.1 0 .4-.2.7-.4 1.1-.2.4-.5.4-.9.4-.2 0-.4 0-.7-.4-2.7-1.8-5.6-2.9-8.6-4.1-3.1-.7-5.9-1.5-8.8-1.5-4.3 0-7.9.4-11 1.5-3.1 1.1-5.6 2.6-7.6 4.8-2 2.2-3.4 5.2-4.3 8.5-.9 3.3-1.3 7.7-1.3 12.5s.4 8.8 1.3 12.5c.9 3.3 2.3 6.3 4.3 8.5s4.5 4.1 7.6 4.8c3.1 1.1 6.7 1.5 11 1.5 2.9 0 5.8-.4 8.8-1.5 3.1-.7 5.8-2.2 8.6-4.1.2 0 .4-.4.7-.4s.7 0 .9.4c.2.4.4.7.4 1.1 0 .4 0 .7-.2 1.1-.2.4-.5.7-.9.7-3.1 1.8-6.1 3.3-9 4.1-2.9.7-5.9 1.1-9.2 1.1-4.5 0-8.5-.7-11.9-1.8s-6.3-2.9-8.5-5.5c-2.3-2.6-4-5.9-5-9.6-1.2-1.1-1.8-5.9-1.8-11.8z"/><linearGradient id="p" gradientUnits="userSpaceOnUse" x1="817.969" y1="326.77" x2="379.529" y2="265.494"><stop offset="0" stop-color="#faa31a"/><stop offset=".101" stop-color="#e7972c"/><stop offset=".299" stop-color="#c17e47"/><stop offset=".502" stop-color="#98665b"/><stop offset=".782" stop-color="#c98442"/><stop offset="1" stop-color="#faa31a"/></linearGradient><path fill="url(#p)" d="M618.9 273.8c0-.7.2-1.5.5-2.2.4-.7.9-.7 1.4-.7s1.1.4 1.4.7c.4.7.5 1.1.5 2.2s-.2 1.5-.5 1.8c-.4.4-.9.7-1.4.7s-1.1-.4-1.4-.7c-.3-.4-.5-1.1-.5-1.8zm3.3 50.1v1.5c0 .4 0 .7-.2 1.1 0 .4-.2.4-.4.7-.2.4-.5.4-.9.4-.7 0-1.1-.4-1.3-.7-.2-.7-.2-1.5-.2-2.6v-34.7c0-.7 0-1.8.2-2.2s.5-1.1 1.3-1.1c.5 0 .9.4 1.1 1.1.2.7.2 1.5.2 2.2v34.3h.2z"/><linearGradient id="q" gradientUnits="userSpaceOnUse" x1="871.575" y1="328.368" x2="362.315" y2="257.194" gradientTransform="matrix(1 0 0 -1 .01 595.26)"><stop offset="0" stop-color="#faa31a"/><stop offset=".101" stop-color="#e7972c"/><stop offset=".299" stop-color="#c17e47"/><stop offset=".502" stop-color="#98665b"/><stop offset=".782" stop-color="#c98442"/><stop offset="1" stop-color="#faa31a"/></linearGradient><path fill="url(#q)" d="M650.2 286.7c.4 0 .7 0 .9.4s.4.7.4.7-.2.7-.4.7c-.2.4-.5.4-.9.4h-12v22.9c0 2.6.2 4.8.5 6.3.4 1.5.9 2.9 1.4 3.7.5.7 1.3 1.5 2.2 1.8.9.4 1.8.4 2.7.4 1.1 0 2.3-.4 3.4-.7s2.3-1.5 3.8-2.6c.4-.4.5-.4.9-.4s.5 0 .7.4.4.7.4 1.1c0 .7-.2 1.5-.7 1.8-1.1.7-2 1.5-2.7 1.8-.7.4-1.4.7-2.2 1.1-.7.4-1.3.4-2 .7h-2c-1.3 0-2.5-.4-3.6-.7-1.1-.4-2.2-1.5-2.9-2.6-.9-1.1-1.4-2.9-2-4.8-.5-1.8-.7-4.4-.7-7.4v-22.9h-3.2c-.4 0-.5 0-.7-.4s-.2-.7-.2-.7 0-.7.2-.7c.2-.4.4-.4.7-.4h3.2v-13.3c0-1.1.2-1.8.5-2.2s.7-.4.9-.4c.4 0 .7 0 1.1.4s.4 1.1.4 2.2v13.3l11.9.1z"/><linearGradient id="r" gradientUnits="userSpaceOnUse" x1="873.233" y1="308.558" x2="371.761" y2="238.472" gradientTransform="matrix(1 0 0 -1 .01 595.26)"><stop offset="0" stop-color="#faa31a"/><stop offset=".101" stop-color="#e7972c"/><stop offset=".299" stop-color="#c17e47"/><stop offset=".502" stop-color="#98665b"/><stop offset=".782" stop-color="#c98442"/><stop offset="1" stop-color="#faa31a"/></linearGradient><path fill="url(#r)" d="M675.6 342c2.5 0 4.5-.4 6.3-1.1 1.6-.7 3.1-2.2 4-4.1 1.1-1.8 1.8-4.4 2.2-7.4s.7-7 .7-11.4c-.2 1.5-.7 2.9-1.3 3.7-.5 1.1-1.3 1.8-2.2 2.6-.9.7-1.8 1.5-2.7 1.8-.9.4-2 .7-3.1 1.1-1.1.4-2 .4-3.1.4h-2.7c-2.5 0-4.9-.4-6.7-1.1-1.8-.7-3.2-1.8-4.3-3.7-1.1-1.8-2-3.7-2.3-6.6-.5-2.6-.7-6.3-.7-10.3v-16.6-1.5c0-.4 0-.7.2-1.1.2-.4.2-.7.4-.7.2-.4.4-.4.7-.4s.7 0 .9.4c.2.4.4.4.4.7.2.4.2.7.2 1.1v18.1c0 3.7.2 6.6.5 8.8.4 2.2.9 4.1 1.6 5.5.7 1.5 2 2.2 3.4 2.9 1.4.7 3.4.7 5.6.7 1.4 0 2.9 0 4.5-.4s3.1-.7 4.5-1.5c1.4-.7 2.7-1.8 3.8-2.9 1.1-1.5 1.8-2.9 2.2-5.2v-24.7-1.5c0-.4.2-.7.2-1.1.2-.4.2-.7.4-.7s.4-.4.7-.4c.4 0 .7 0 .9.4.2.4.4.4.5.7s.2.7.2 1.1v28c0 5.5-.4 10.3-.9 14-.5 3.7-1.4 6.6-2.9 8.8-1.3 2.2-2.9 3.7-4.9 4.8-2 1.1-4.5 1.5-7.2 1.5-2 0-3.8 0-5-.4-1.3-.4-2.5-.7-3.6-1.1-.9-.4-1.8-1.1-2.3-1.5-.5-.7-1.3-1.1-1.6-1.8-.2-.4-.4-.7-.4-1.1 0-.4.2-1.1.4-1.1s.5-.4.9-.4c.2 0 .4 0 .5.4.5.4 1.1 1.1 1.6 1.5.5.4 1.4 1.1 2.2 1.5.9.4 2 .7 3.1 1.1 1.1.2 2.5.2 4.2.2z"/></svg>